HIERARCHY
ROOT hips
{
	OFFSET -0.003675 0.299928 -0.021708
	CHANNELS 6 Xposition Yposition Zposition Xrotation Yrotation Zrotation
	JOINT LowerBack
	{
		OFFSET 0.000919 0.177588 0.009275
		CHANNELS 3 Xrotation Yrotation Zrotation
		JOINT spine
		{
			OFFSET 0.000919 0.177588 0.009275
			CHANNELS 3 Xrotation Yrotation Zrotation
			JOINT chest
			{
				OFFSET 0.000456 0.100015 0.004638
				CHANNELS 3 Xrotation Yrotation Zrotation
				JOINT neck
				{
					OFFSET 0.000456 0.100015 0.004638
					CHANNELS 3 Xrotation Yrotation Zrotation
					JOINT head
					{
						OFFSET 0.000924 0.155147 0.009274
						CHANNELS 6 Xposition Yposition Zposition Xrotation Yrotation Zrotation
						End Site
						{
							OFFSET 0.000000 0.153400 0.000000
						}
					}
				}
				JOINT shoulder.L
				{
					OFFSET 0.019937 0.078966 0.057518
					CHANNELS 6 Xposition Yposition Zposition Yrotation Xrotation Zrotation
					JOINT upper_arm.L
					{
						OFFSET 0.177024 -0.020465 -0.095062
						CHANNELS 6 Xposition Yposition Zposition Xrotation Yrotation Zrotation
						JOINT forearm.L
						{
							OFFSET 0.247100 -0.135500 -0.061800
							CHANNELS 3 Xrotation Yrotation Zrotation
							JOINT hand.L
							{
								OFFSET 0.217000 -0.143000 0.039300
								CHANNELS 3 Xrotation Yrotation Zrotation
								JOINT palm.01.L
								{
									OFFSET 0.021770 -0.038291 0.012954
									CHANNELS 6 Xposition Yposition Zposition Yrotation Xrotation Zrotation
									JOINT f_index.01.L
									{
										OFFSET 0.053215 -0.044137 0.008236
										CHANNELS 3 Xrotation Yrotation Zrotation
										JOINT f_index.02.L
										{
											OFFSET 0.036108 -0.024723 -0.010656
											CHANNELS 3 Xrotation Yrotation Zrotation
											JOINT f_index.03.L
											{
												OFFSET 0.021342 -0.014948 -0.010846
												CHANNELS 3 Xrotation Yrotation Zrotation
												End Site
												{
													OFFSET 0.015600 -0.009860 -0.013421
												}
											}
										}
									}
									JOINT thumb.01.L
									{
										OFFSET -0.009090 -0.002348 -0.024223
										CHANNELS 6 Xposition Yposition Zposition Xrotation Yrotation Zrotation
										JOINT thumb.02.L
										{
											OFFSET 0.019713 -0.035076 -0.011120
											CHANNELS 3 Xrotation Yrotation Zrotation
											JOINT thumb.03.L
											{
												OFFSET 0.024877 -0.021748 -0.005176
												CHANNELS 3 Xrotation Yrotation Zrotation
												End Site
												{
													OFFSET 0.016125 -0.013029 -0.001569
												}
											}
										}
									}
								}
								JOINT palm.02.L
								{
									OFFSET 0.032823 -0.025104 0.012281
									CHANNELS 6 Xposition Yposition Zposition Yrotation Xrotation Zrotation
									JOINT f_middle.01.L
									{
										OFFSET 0.055723 -0.038469 0.008037
										CHANNELS 3 Xrotation Yrotation Zrotation
										JOINT f_middle.02.L
										{
											OFFSET 0.038167 -0.027473 -0.015582
											CHANNELS 3 Xrotation Yrotation Zrotation
											JOINT f_middle.03.L
											{
												OFFSET 0.021707 -0.016587 -0.017037
												CHANNELS 3 Xrotation Yrotation Zrotation
												End Site
												{
													OFFSET 0.014112 -0.010584 -0.014294
												}
											}
										}
									}
								}
								JOINT palm.03.L
								{
									OFFSET 0.039230 -0.011402 0.008390
									CHANNELS 6 Xposition Yposition Zposition Yrotation Xrotation Zrotation
									JOINT f_ring.01.L
									{
										OFFSET 0.061796 -0.031470 0.007910
										CHANNELS 3 Xrotation Yrotation Zrotation
										JOINT f_ring.02.L
										{
											OFFSET 0.033092 -0.023401 -0.019127
											CHANNELS 3 Xrotation Yrotation Zrotation
											JOINT f_ring.03.L
											{
												OFFSET 0.021392 -0.015362 -0.017824
												CHANNELS 3 Xrotation Yrotation Zrotation
												End Site
												{
													OFFSET 0.008670 -0.007297 -0.014686
												}
											}
										}
									}
								}
								JOINT palm.04.L
								{
									OFFSET 0.043417 0.002450 0.002889
									CHANNELS 6 Xposition Yposition Zposition Yrotation Xrotation Zrotation
									JOINT f_pinky.01.L
									{
										OFFSET 0.069986 -0.026156 0.003627
										CHANNELS 3 Xrotation Yrotation Zrotation
										JOINT f_pinky.02.L
										{
											OFFSET 0.018520 -0.012813 -0.016429
											CHANNELS 3 Xrotation Yrotation Zrotation
											JOINT f_pinky.03.L
											{
												OFFSET 0.013822 -0.009796 -0.014947
												CHANNELS 3 Xrotation Yrotation Zrotation
												End Site
												{
													OFFSET 0.007238 -0.006103 -0.011657
												}
											}
										}
									}
								}
							}
						}
					}
				}
				JOINT shoulder.R
				{
					OFFSET -0.016662 0.078957 0.057696
					CHANNELS 6 Xposition Yposition Zposition Yrotation Xrotation Zrotation
					JOINT upper_arm.R
					{
						OFFSET -0.176972 -0.020537 -0.095144
						CHANNELS 6 Xposition Yposition Zposition Xrotation Yrotation Zrotation
						JOINT forearm.R
						{
							OFFSET -0.247100 -0.135500 -0.061800
							CHANNELS 3 Xrotation Yrotation Zrotation
							JOINT hand.R
							{
								OFFSET -0.217000 -0.143000 0.039300
								CHANNELS 3 Xrotation Yrotation Zrotation
								JOINT palm.01.R
								{
									OFFSET -0.021773 -0.038278 0.012988
									CHANNELS 6 Xposition Yposition Zposition Yrotation Xrotation Zrotation
									JOINT f_index.01.R
									{
										OFFSET -0.053212 -0.044139 0.008249
										CHANNELS 3 Xrotation Yrotation Zrotation
										JOINT f_index.02.R
										{
											OFFSET -0.036049 -0.024835 -0.010634
											CHANNELS 3 Xrotation Yrotation Zrotation
											JOINT f_index.03.R
											{
												OFFSET -0.021371 -0.014881 -0.010866
												CHANNELS 3 Xrotation Yrotation Zrotation
												End Site
												{
													OFFSET -0.015584 -0.009883 -0.013422
												}
											}
										}
									}
									JOINT thumb.01.R
									{
										OFFSET 0.009113 -0.002381 -0.024211
										CHANNELS 6 Xposition Yposition Zposition Xrotation Yrotation Zrotation
										JOINT thumb.02.R
										{
											OFFSET -0.019694 -0.035097 -0.011088
											CHANNELS 3 Xrotation Yrotation Zrotation
											JOINT thumb.03.R
											{
												OFFSET -0.024867 -0.021762 -0.005168
												CHANNELS 3 Xrotation Yrotation Zrotation
												End Site
												{
													OFFSET -0.016120 -0.013036 -0.001565
												}
											}
										}
									}
								}
								JOINT palm.02.R
								{
									OFFSET -0.032828 -0.025095 0.012286
									CHANNELS 6 Xposition Yposition Zposition Yrotation Xrotation Zrotation
									JOINT f_middle.01.R
									{
										OFFSET -0.055721 -0.038472 0.008040
										CHANNELS 3 Xrotation Yrotation Zrotation
										JOINT f_middle.02.R
										{
											OFFSET -0.038101 -0.027593 -0.015557
											CHANNELS 3 Xrotation Yrotation Zrotation
											JOINT f_middle.03.R
											{
												OFFSET -0.021730 -0.016530 -0.017054
												CHANNELS 3 Xrotation Yrotation Zrotation
												End Site
												{
													OFFSET -0.014096 -0.010608 -0.014293
												}
											}
										}
									}
								}
								JOINT palm.03.R
								{
									OFFSET -0.039192 -0.011488 0.008390
									CHANNELS 6 Xposition Yposition Zposition Yrotation Xrotation Zrotation
									JOINT f_ring.01.R
									{
										OFFSET -0.061839 -0.031387 0.007876
										CHANNELS 3 Xrotation Yrotation Zrotation
										JOINT f_ring.02.R
										{
											OFFSET -0.033068 -0.023437 -0.019125
											CHANNELS 3 Xrotation Yrotation Zrotation
											JOINT f_ring.03.R
											{
												OFFSET -0.021371 -0.015393 -0.017822
												CHANNELS 3 Xrotation Yrotation Zrotation
												End Site
												{
													OFFSET -0.008654 -0.007321 -0.014684
												}
											}
										}
									}
								}
								JOINT palm.04.R
								{
									OFFSET -0.043421 0.002443 0.002845
									CHANNELS 6 Xposition Yposition Zposition Yrotation Xrotation Zrotation
									JOINT f_pinky.01.R
									{
										OFFSET -0.069983 -0.026169 0.003599
										CHANNELS 3 Xrotation Yrotation Zrotation
										JOINT f_pinky.02.R
										{
											OFFSET -0.018501 -0.012842 -0.016428
											CHANNELS 3 Xrotation Yrotation Zrotation
											JOINT f_pinky.03.R
											{
												OFFSET -0.013806 -0.009821 -0.014946
												CHANNELS 3 Xrotation Yrotation Zrotation
												End Site
												{
													OFFSET -0.007226 -0.006121 -0.011655
												}
											}
										}
									}
								}
							}
						}
					}
				}
			}
		}
	}
	JOINT pelvis.L
	{
		OFFSET 0.000000 0.000000 0.000000
		CHANNELS 6 Xposition Yposition Zposition Xrotation Yrotation Zrotation
		JOINT thigh.L
		{
			OFFSET 0.101675 0.001054 -0.000000
			CHANNELS 3 Xrotation Yrotation Zrotation
			JOINT shin.L
			{
				OFFSET 0.000000 -0.534800 0.041000
				CHANNELS 3 Xrotation Yrotation Zrotation
				JOINT foot.L
				{
					OFFSET 0.000000 -0.452000 -0.044800
					CHANNELS 3 Xrotation Yrotation Zrotation
					JOINT toe.L
					{
						OFFSET -0.000000 -0.068500 0.109600
						CHANNELS 3 Xrotation Yrotation Zrotation
						End Site
						{
							OFFSET -0.000000 0.000000 0.067200
						}
					}
				}
				JOINT heel.L
				{
					OFFSET 0.000000 -0.452000 -0.044800
					CHANNELS 3 Xrotation Yrotation Zrotation
					JOINT heel.02.L
					{
						OFFSET -0.038000 -0.085200 0.016200
						CHANNELS 6 Xposition Yposition Zposition Xrotation Yrotation Zrotation
						End Site
						{
							OFFSET 0.080000 -0.000000 0.000000
						}
					}
				}
			}
		}
	}
	JOINT pelvis.R
	{
		OFFSET 0.000000 0.000000 0.000000
		CHANNELS 6 Xposition Yposition Zposition Xrotation Yrotation Zrotation
		JOINT thigh.R
		{
			OFFSET -0.094325 0.001054 0.000000
			CHANNELS 3 Xrotation Yrotation Zrotation
			JOINT shin.R
			{
				OFFSET 0.000000 -0.534800 0.041000
				CHANNELS 3 Xrotation Yrotation Zrotation
				JOINT foot.R
				{
					OFFSET 0.000000 -0.452000 -0.044800
					CHANNELS 3 Xrotation Yrotation Zrotation
					JOINT toe.R
					{
						OFFSET -0.000000 -0.068500 0.109600
						CHANNELS 3 Xrotation Yrotation Zrotation
						End Site
						{
							OFFSET -0.000000 0.000000 0.067200
						}
					}
				}
				JOINT heel.R
				{
					OFFSET 0.000000 -0.452000 -0.044800
					CHANNELS 3 Xrotation Yrotation Zrotation
					JOINT heel.02.R
					{
						OFFSET 0.038000 -0.085200 0.016200
						CHANNELS 6 Xposition Yposition Zposition Xrotation Yrotation Zrotation
						End Site
						{
							OFFSET -0.080000 0.000000 -0.000000
						}
					}
				}
			}
		}
	}
}
MOTION
Frames: 4
Frame Time: 0.041667
-0.013055 0.206137 -0.003115 -9.605499 13.270113 90.870988 -0.000001 0.000001 -0.000000 -0.000002 0.000000 -0.000000 0.000000 -0.000001 -0.000000 0.000000 0.000001 0.000000 0.000924 0.155148 0.009274 -11.652707 0.041347 -10.342795 0.019937 0.078966 0.057518 -7.040301 2.679881 42.732495 0.177024 -0.020465 -0.095062 -14.818145 5.736207 -23.824019 -5.407201 -11.579559 10.251363 0.000001 0.000001 0.000001 0.021770 -0.038291 0.012954 -0.000001 -0.000001 0.000001 -0.000002 -0.000002 0.000003 0.000000 -0.000001 0.000005 -0.000001 0.000002 0.000002 -0.009090 -0.002348 -0.024224 -0.000001 -0.000005 0.000004 0.000001 0.000000 0.000001 -0.000000 0.000000 -0.000002 0.032823 -0.025104 0.012281 0.000001 0.000000 0.000002 -0.000000 0.000001 -0.000003 -0.000003 -0.000002 0.000001 -0.000002 -0.000003 0.000000 0.039230 -0.011402 0.008390 -0.000001 -0.000001 0.000003 0.000001 0.000002 -0.000000 0.000003 0.000003 -0.000001 0.000000 -0.000002 0.000003 0.043417 0.002450 0.002889 0.000000 0.000000 -0.000003 -0.000000 -0.000002 0.000003 -0.000001 -0.000004 -0.000001 0.000001 -0.000004 -0.000003 -0.016662 0.078957 0.057696 -17.008778 4.185642 -33.240366 -0.176972 -0.020537 -0.095144 -14.804054 1.511215 12.830620 -0.218591 1.679306 -20.396200 0.000000 0.000001 0.000002 -0.021773 -0.038278 0.012988 -0.000001 -0.000001 -0.000007 -0.000001 0.000002 -0.000003 -0.000001 0.000001 -0.000004 -0.000002 0.000000 0.000001 0.009113 -0.002381 -0.024212 0.000002 -0.000002 -0.000003 -0.000001 -0.000002 0.000002 0.000001 0.000000 -0.000004 -0.032829 -0.025095 0.012286 0.000002 0.000000 -0.000006 -0.000001 0.000003 -0.000004 -0.000001 0.000000 -0.000002 -0.000002 -0.000002 -0.000001 -0.039192 -0.011488 0.008390 0.000000 0.000001 -0.000002 0.000001 -0.000001 -0.000002 0.000004 -0.000001 0.000002 -0.000001 0.000004 -0.000001 -0.043421 0.002443 0.002844 -0.000000 0.000001 -0.000003 -0.000006 0.000007 -0.000003 -0.000003 -0.000004 -0.000002 -0.000003 0.000002 -0.000003 -0.000000 0.000000 -0.000000 -2.275757 -0.097136 0.096204 29.111602 0.162852 0.656552 29.032597 -1.139447 11.578216 0.000000 0.000000 -0.000000 0.000000 -0.000000 -0.000000 0.000000 0.000000 -0.000000 -0.038000 -0.085200 0.016200 0.000002 -0.000000 -0.000000 -0.000000 0.000000 -0.000000 -2.230522 -0.096593 1.330467 -18.769951 0.231008 1.259556 35.500038 -0.329881 3.330967 0.000000 -0.000000 0.000000 0.000001 0.000000 0.000001 0.000002 0.000000 0.000000 0.038000 -0.085200 0.016200 0.000002 -0.000000 -0.000001 
-0.012627 0.205960 -0.002769 -11.294610 13.319811 91.589162 -0.000000 -0.000000 0.000000 -0.000001 -0.000000 0.000000 -0.000000 0.000001 -0.000000 -0.000001 0.000001 -0.000000 0.000924 0.155148 0.009274 -10.748689 0.038062 -10.056588 0.019937 0.078966 0.057518 -8.293156 3.001038 43.939403 0.177024 -0.020465 -0.095062 -15.491530 5.364600 -23.926629 -2.790021 -6.172643 9.797427 -0.000001 -0.000002 -0.000000 0.021770 -0.038291 0.012954 0.000002 0.000001 0.000001 -0.000001 -0.000002 0.000001 -0.000001 -0.000003 0.000005 -0.000000 0.000003 -0.000001 -0.009090 -0.002348 -0.024223 0.000001 -0.000002 -0.000001 0.000000 0.000001 0.000005 -0.000001 0.000000 -0.000002 0.032823 -0.025104 0.012281 0.000001 0.000002 0.000004 -0.000002 0.000001 -0.000003 -0.000004 -0.000001 0.000005 -0.000000 0.000003 0.000001 0.039230 -0.011402 0.008390 0.000003 0.000002 0.000008 0.000001 0.000002 0.000001 -0.000001 0.000001 0.000001 0.000001 0.000001 0.000001 0.043417 0.002450 0.002889 0.000000 0.000001 -0.000000 0.000001 -0.000002 -0.000004 0.000000 0.000006 -0.000002 0.000000 0.000002 -0.000002 -0.016662 0.078956 0.057696 -19.343101 4.899871 -33.483083 -0.176972 -0.020537 -0.095144 -14.942958 2.773425 11.270579 0.063256 0.906795 -21.934036 0.000001 0.000001 0.000002 -0.021773 -0.038278 0.012988 -0.000001 -0.000000 -0.000005 -0.000002 0.000002 -0.000001 -0.000003 -0.000001 -0.000008 0.000001 0.000002 0.000003 0.009114 -0.002381 -0.024211 -0.000000 -0.000002 0.000000 -0.000001 -0.000001 -0.000001 0.000001 -0.000000 0.000001 -0.032829 -0.025095 0.012286 -0.000000 -0.000000 -0.000004 -0.000001 0.000001 -0.000003 0.000001 -0.000001 -0.000002 -0.000003 0.000003 -0.000003 -0.039192 -0.011488 0.008390 0.000000 0.000001 -0.000004 -0.000002 0.000004 -0.000002 -0.000000 -0.000002 0.000002 -0.000004 0.000003 0.000001 -0.043421 0.002443 0.002844 -0.000001 0.000000 -0.000001 -0.000002 0.000004 0.000001 -0.000001 -0.000002 0.000002 0.000002 0.000002 -0.000001 -0.000000 0.000000 0.000000 -2.256936 -0.155027 0.728907 30.118791 0.199323 1.080435 26.441377 -1.093101 11.101113 -0.000005 -0.000001 -0.000000 0.000005 -0.000000 -0.000000 0.000000 -0.000001 -0.000000 -0.038000 -0.085200 0.016200 0.000001 -0.000000 -0.000000 -0.000000 0.000000 0.000000 -2.214180 -0.154034 1.963219 -15.538984 0.217317 1.313357 28.086759 -0.350379 3.537822 0.000002 0.000001 0.000000 0.000001 0.000001 -0.000001 0.000005 -0.000000 0.000000 0.038000 -0.085200 0.016200 -0.000000 0.000001 -0.000001 
-0.013765 0.205337 -0.004673 -15.925477 11.162614 92.443079 0.000001 -0.000000 -0.000001 0.000001 -0.000001 0.000000 -0.000001 -0.000002 0.000000 0.000000 -0.000002 0.000001 0.000924 0.155148 0.009274 -5.855592 0.018631 -12.182534 0.019937 0.078966 0.057518 -6.593723 4.000494 48.933797 0.177024 -0.020465 -0.095062 -17.030819 -1.751004 -13.250295 2.218118 5.299242 15.232935 -0.000001 -0.000002 -0.000006 0.021770 -0.038291 0.012954 -0.000000 -0.000001 0.000001 -0.000001 0.000000 -0.000002 -0.000000 -0.000000 0.000006 0.000001 0.000004 0.000002 -0.009090 -0.002348 -0.024224 0.000001 -0.000001 -0.000003 0.000001 0.000000 0.000001 -0.000000 0.000000 -0.000002 0.032823 -0.025104 0.012281 0.000001 -0.000000 0.000007 -0.000000 0.000002 -0.000002 -0.000006 -0.000002 0.000005 -0.000003 0.000000 0.000008 0.039230 -0.011402 0.008390 0.000001 -0.000000 0.000001 -0.000001 0.000002 -0.000000 0.000001 0.000003 0.000003 0.000001 0.000002 0.000002 0.043417 0.002450 0.002889 -0.000000 -0.000000 0.000002 0.000002 -0.000006 -0.000000 0.000003 -0.000001 -0.000000 -0.000002 -0.000002 -0.000002 -0.016662 0.078956 0.057696 -20.904590 5.040942 -32.480586 -0.176972 -0.020537 -0.095144 -15.695549 1.494713 14.393160 0.756878 -1.131988 -28.986332 -0.000001 0.000000 -0.000002 -0.021773 -0.038278 0.012988 -0.000000 0.000000 -0.000005 -0.000001 0.000000 0.000002 0.000001 -0.000000 -0.000006 -0.000002 -0.000001 0.000004 0.009113 -0.002381 -0.024212 0.000001 -0.000003 0.000000 -0.000001 -0.000001 0.000004 0.000001 0.000000 -0.000008 -0.032828 -0.025095 0.012286 0.000001 -0.000000 -0.000001 -0.000001 0.000002 0.000004 0.000002 -0.000000 -0.000001 -0.000001 0.000001 -0.000004 -0.039192 -0.011488 0.008390 -0.000001 0.000001 -0.000000 0.000002 0.000002 -0.000003 0.000001 0.000000 -0.000005 -0.000000 0.000002 -0.000003 -0.043421 0.002443 0.002845 0.000000 0.000002 -0.000003 -0.000003 0.000004 -0.000004 -0.000001 -0.000002 -0.000002 -0.000001 0.000002 0.000001 -0.000000 0.000000 -0.000000 -2.270861 -0.130833 0.462740 30.692322 0.481318 4.734466 29.281865 -1.243552 12.652902 0.000002 0.000001 -0.000000 0.000001 -0.000001 -0.000000 0.000000 0.000001 0.000001 -0.038000 -0.085200 0.016200 -0.000000 0.000001 -0.000000 -0.000000 0.000000 0.000000 -2.226954 -0.130022 1.697033 -21.084698 0.017216 -1.680803 35.305391 -0.424236 4.284925 -0.000003 -0.000001 0.000001 0.000001 0.000002 -0.000001 -0.000002 0.000000 -0.000000 0.038000 -0.085200 0.016200 0.000002 0.000001 0.000000 
-0.014124 0.205379 -0.005259 -15.126258 10.415046 91.833136 -0.000002 -0.000002 0.000001 -0.000001 -0.000000 0.000000 0.000000 -0.000000 0.000000 -0.000001 0.000000 -0.000000 0.000924 0.155147 0.009274 -4.392503 0.009731 -15.393764 0.019937 0.078966 0.057518 -6.607165 3.990327 48.936434 0.177025 -0.020465 -0.095062 -18.278737 -3.078123 -13.211562 2.639775 7.190470 17.604816 -0.000001 0.000001 0.000001 0.021770 -0.038291 0.012954 0.000000 -0.000000 -0.000004 -0.000001 0.000000 0.000008 -0.000000 -0.000001 0.000007 0.000003 0.000005 -0.000001 -0.009090 -0.002348 -0.024223 0.000001 0.000001 0.000006 0.000001 0.000001 0.000003 -0.000001 -0.000000 -0.000002 0.032823 -0.025104 0.012281 0.000000 0.000001 0.000005 0.000002 0.000003 -0.000002 -0.000003 -0.000001 0.000003 -0.000000 -0.000001 -0.000001 0.039230 -0.011402 0.008390 0.000000 0.000000 0.000003 -0.000001 0.000000 -0.000000 -0.000003 0.000003 0.000001 -0.000004 -0.000003 0.000008 0.043418 0.002450 0.002889 -0.000001 0.000002 -0.000003 0.000002 -0.000006 -0.000005 -0.000000 0.000000 -0.000006 0.000004 0.000000 -0.000003 -0.016662 0.078957 0.057696 -19.995999 4.662496 -31.903117 -0.176972 -0.020537 -0.095144 -16.330743 0.878237 16.607205 0.800207 -1.427959 -29.558159 -0.000001 0.000001 0.000000 -0.021773 -0.038278 0.012988 -0.000000 -0.000000 -0.000007 -0.000001 0.000001 0.000001 -0.000001 -0.000000 -0.000005 -0.000003 0.000003 0.000002 0.009113 -0.002381 -0.024211 -0.000002 -0.000001 0.000001 0.000001 -0.000003 -0.000001 0.000001 -0.000000 -0.000001 -0.032828 -0.025095 0.012286 0.000001 0.000001 -0.000006 0.000001 0.000001 0.000001 0.000003 -0.000001 -0.000001 0.000001 0.000000 -0.000008 -0.039192 -0.011488 0.008390 0.000000 0.000002 -0.000002 -0.000001 0.000001 -0.000002 -0.000003 0.000001 -0.000000 -0.000001 0.000003 0.000003 -0.043421 0.002443 0.002845 -0.000000 -0.000000 -0.000007 -0.000003 0.000001 -0.000002 -0.000004 -0.000002 -0.000002 0.000001 0.000002 0.000001 -0.000000 0.000000 -0.000000 -2.272466 -0.146260 0.629817 29.109266 0.508189 5.173955 33.982776 -1.251597 12.736179 0.000002 0.000000 0.000000 0.000003 -0.000000 0.000000 0.000000 -0.000000 0.000000 -0.038000 -0.085200 0.016200 -0.000002 -0.000001 0.000000 -0.000000 0.000000 -0.000000 -2.229087 -0.145332 1.864116 -22.207505 0.077312 -0.975244 34.859551 -0.330385 3.335890 -0.000002 0.000000 0.000001 0.000003 0.000001 -0.000001 0.000000 0.000000 -0.000000 0.038000 -0.085200 0.016200 0.000002 -0.000000 0.000000 
